<svg xmlns="http://www.w3.org/2000/svg" viewBox="0 0 18 12">
  <!-- United States: 13 stripes, blue canton, stars simplified as dots for small sizes -->
  <rect width="18" height="12" fill="#FFFFFF"/>
  <rect y="0.000" width="18" height="0.923" fill="#B22234"/>
  <rect y="1.846" width="18" height="0.923" fill="#B22234"/>
  <rect y="3.692" width="18" height="0.923" fill="#B22234"/>
  <rect y="5.538" width="18" height="0.923" fill="#B22234"/>
  <rect y="7.385" width="18" height="0.923" fill="#B22234"/>
  <rect y="9.231" width="18" height="0.923" fill="#B22234"/>
  <rect y="11.077" width="18" height="0.923" fill="#B22234"/>
  <rect width="7.2" height="6.462" fill="#3C3B6E"/>
  <g fill="#FFFFFF">
    <circle cx="0.60" cy="0.65" r="0.22"/>
    <circle cx="1.80" cy="0.65" r="0.22"/>
    <circle cx="3.00" cy="0.65" r="0.22"/>
    <circle cx="4.20" cy="0.65" r="0.22"/>
    <circle cx="5.40" cy="0.65" r="0.22"/>
    <circle cx="6.60" cy="0.65" r="0.22"/>
    <circle cx="1.20" cy="1.29" r="0.22"/>
    <circle cx="2.40" cy="1.29" r="0.22"/>
    <circle cx="3.60" cy="1.29" r="0.22"/>
    <circle cx="4.80" cy="1.29" r="0.22"/>
    <circle cx="6.00" cy="1.29" r="0.22"/>
    <circle cx="0.60" cy="1.94" r="0.22"/>
    <circle cx="1.80" cy="1.94" r="0.22"/>
    <circle cx="3.00" cy="1.94" r="0.22"/>
    <circle cx="4.20" cy="1.94" r="0.22"/>
    <circle cx="5.40" cy="1.94" r="0.22"/>
    <circle cx="6.60" cy="1.94" r="0.22"/>
    <circle cx="1.20" cy="2.58" r="0.22"/>
    <circle cx="2.40" cy="2.58" r="0.22"/>
    <circle cx="3.60" cy="2.58" r="0.22"/>
    <circle cx="4.80" cy="2.58" r="0.22"/>
    <circle cx="6.00" cy="2.58" r="0.22"/>
    <circle cx="0.60" cy="3.23" r="0.22"/>
    <circle cx="1.80" cy="3.23" r="0.22"/>
    <circle cx="3.00" cy="3.23" r="0.22"/>
    <circle cx="4.20" cy="3.23" r="0.22"/>
    <circle cx="5.40" cy="3.23" r="0.22"/>
    <circle cx="6.60" cy="3.23" r="0.22"/>
    <circle cx="1.20" cy="3.88" r="0.22"/>
    <circle cx="2.40" cy="3.88" r="0.22"/>
    <circle cx="3.60" cy="3.88" r="0.22"/>
    <circle cx="4.80" cy="3.88" r="0.22"/>
    <circle cx="6.00" cy="3.88" r="0.22"/>
    <circle cx="0.60" cy="4.52" r="0.22"/>
    <circle cx="1.80" cy="4.52" r="0.22"/>
    <circle cx="3.00" cy="4.52" r="0.22"/>
    <circle cx="4.20" cy="4.52" r="0.22"/>
    <circle cx="5.40" cy="4.52" r="0.22"/>
    <circle cx="6.60" cy="4.52" r="0.22"/>
    <circle cx="1.20" cy="5.17" r="0.22"/>
    <circle cx="2.40" cy="5.17" r="0.22"/>
    <circle cx="3.60" cy="5.17" r="0.22"/>
    <circle cx="4.80" cy="5.17" r="0.22"/>
    <circle cx="6.00" cy="5.17" r="0.22"/>
    <circle cx="0.60" cy="5.82" r="0.22"/>
    <circle cx="1.80" cy="5.82" r="0.22"/>
    <circle cx="3.00" cy="5.82" r="0.22"/>
    <circle cx="4.20" cy="5.82" r="0.22"/>
    <circle cx="5.40" cy="5.82" r="0.22"/>
    <circle cx="6.60" cy="5.82" r="0.22"/>
  </g>
</svg>
